<svg xmlns="http://www.w3.org/2000/svg" xmlns:xlink="http://www.w3.org/1999/xlink" version="1.1" x="0px" y="0px" viewBox="0 0 80 100" enable-background="new 0 0 80 80" xml:space="preserve"><g><path d="M57.212,51.054c-0.759,0-1.232-0.058-1.253-0.061c-0.001,0-0.004,0-0.005,0C44.655,50.994,41.809,38.665,41.781,38.54   c-0.243-1.423-0.968-1.717-1.535-1.717c-0.084,0-0.142,0.008-0.157,0.01L40,36.849l-0.095-0.017   c-0.009-0.001-0.067-0.009-0.151-0.009c-0.566,0-1.291,0.294-1.53,1.693c-0.032,0.148-2.879,12.479-14.242,12.48   c0.018,0.001-0.452,0.057-1.193,0.057c-2.645,0-11.328-0.817-12.002-11.335c-0.002-0.024-0.411-4.095-2.296-3.776L8.1,36.008   l-0.154-0.364c-0.043-0.102-1.06-2.53-0.935-4.591l0.021-0.346l0.332-0.102c0.222-0.068,5.514-1.659,13.674-1.659   c5.844,0,11.627,0.822,17.189,2.442c1.152,0.335,2.393,0.335,3.545,0c5.563-1.62,11.346-2.442,17.189-2.442   c8.159,0,13.453,1.591,13.675,1.659l0.332,0.102l0.021,0.346c0.125,2.061-0.891,4.489-0.934,4.591l-0.154,0.364l-0.391-0.066   c-1.857-0.319-2.295,3.751-2.298,3.791C68.54,50.236,59.857,51.054,57.212,51.054z M40.247,35.823c0.489,0,2.116,0.182,2.516,2.525   c0.101,0.453,2.704,11.648,13.259,11.648c0.066,0.004,0.5,0.057,1.19,0.057c3.108,0,10.402-1.013,11.004-10.399   c0.019-0.206,0.465-4.698,3.047-4.731c0.238-0.646,0.726-2.127,0.737-3.458c-1.302-0.348-6.193-1.519-13.038-1.519   c-5.749,0-11.438,0.808-16.91,2.402c-1.334,0.389-2.77,0.389-4.104,0c-5.472-1.594-11.161-2.402-16.91-2.402   c-6.846,0-11.736,1.171-13.038,1.519c0.011,1.334,0.499,2.813,0.737,3.458c2.583,0.033,3.027,4.525,3.045,4.717   c0.603,9.4,7.897,10.413,11.005,10.413c0.691,0,1.125-0.053,1.129-0.053c10.631-0.004,13.299-11.559,13.325-11.676   c0.395-2.32,2.022-2.502,2.511-2.502c0.104,0,0.188,0.007,0.247,0.014C40.059,35.83,40.143,35.823,40.247,35.823z M55.118,48.852   c-8.477,0.001-9.893-8.211-10.108-11.742c-0.099-1.629,0.764-3.185,2.196-3.962c2.379-1.291,5.372-1.946,8.895-1.946   c3.161,0,6.047,0.522,7.911,0.961c1.499,0.352,2.627,1.545,2.871,3.039c0.43,2.628-0.471,6.131-1.302,8.606   c-0.813,2.425-2.884,4.2-5.401,4.634c-2.332,0.4-4.609,0.405-4.706,0.405L55.118,48.852z M56.101,32.202   c-3.354,0-6.187,0.614-8.418,1.825c-1.092,0.593-1.75,1.779-1.675,3.022c0.246,4.034,1.757,10.803,9.11,10.803l0.337-0.005   c0.111,0,2.307-0.005,4.555-0.392c2.155-0.37,3.927-1.89,4.624-3.966c0.795-2.368,1.659-5.701,1.263-8.126   c-0.18-1.093-1.009-1.967-2.113-2.227C61.97,32.71,59.165,32.202,56.101,32.202z M24.882,48.852l-0.356-0.005   c-0.096,0-2.374-0.005-4.706-0.405c-2.518-0.434-4.587-2.209-5.402-4.634c-0.831-2.475-1.731-5.976-1.301-8.606   c0.244-1.494,1.371-2.687,2.871-3.039c1.865-0.438,4.751-0.961,7.911-0.961c3.523,0,6.516,0.655,8.895,1.946   c1.433,0.778,2.295,2.333,2.196,3.962C34.775,40.64,33.361,48.852,24.882,48.852z M23.899,32.202c-3.064,0-5.869,0.508-7.683,0.935   c-1.105,0.259-1.934,1.133-2.112,2.227c-0.397,2.428,0.467,5.759,1.262,8.126c0.697,2.076,2.469,3.596,4.623,3.966   c2.249,0.387,4.444,0.392,4.536,0.392l0.356,0.005c7.355,0,8.865-6.769,9.11-10.803c0.076-1.243-0.582-2.429-1.674-3.022   C30.086,32.816,27.254,32.202,23.899,32.202z"/></g><text x="0" y="95" fill="#000000" font-size="5px" font-weight="bold" font-family="'Helvetica Neue', Helvetica, Arial-Unicode, Arial, Sans-serif">Created by Yeong Rong Kim</text><text x="0" y="100" fill="#000000" font-size="5px" font-weight="bold" font-family="'Helvetica Neue', Helvetica, Arial-Unicode, Arial, Sans-serif">from the Noun Project</text></svg>